<svg xmlns="http://www.w3.org/2000/svg" width="12.095" height="11.46" viewBox="0 0 12.095 11.46"><defs><style>.a{fill:#484fff;}</style></defs><path class="a" d="M1550.476,1956.077l-4.237,1.524a.59.59,0,0,1-.4,0l-4.237-1.524a1.214,1.214,0,0,0-1.61,1.169v7.274a1.237,1.237,0,0,0,.823,1.174l5.031,1.74a.593.593,0,0,0,.387,0l5.032-1.74a1.238,1.238,0,0,0,.823-1.174v-7.274A1.214,1.214,0,0,0,1550.476,1956.077Zm-5.042,2.773v7.172l-3.825-1.343a.619.619,0,0,1-.409-.587v-5.972a.607.607,0,0,1,.8-.586l3.433,1.206Zm5.443,5.242a.619.619,0,0,1-.409.587l-3.825,1.343v-7.282l3.432-1.206a.607.607,0,0,1,.8.586Z" transform="translate(-1539.991 -1956.006)"/></svg>