<svg xmlns="http://www.w3.org/2000/svg" width="15" height="10.748" viewBox="0 0 15 10.748"><defs><style>.a{fill:#ff0ad6;}</style></defs><path class="a" d="M1910,1359.006h-1.5a1.5,1.5,0,0,0-1.5,1.5v9a1.5,1.5,0,0,0,1.5,1.5h1.5a1.5,1.5,0,0,0,1.5-1.5v-9A1.5,1.5,0,0,0,1910,1359.006Zm0,9.75a.75.75,0,1,1-1.5,0v-7.5a.75.75,0,1,1,1.5,0Zm6.249-12.75h-1.5a1.5,1.5,0,0,0-1.5,1.5v12a1.5,1.5,0,0,0,1.5,1.5h1.5a1.5,1.5,0,0,0,1.5-1.5v-12A1.5,1.5,0,0,0,1916.245,1356.006Zm0,12.75a.75.75,0,1,1-1.5,0v-10.5a.75.75,0,1,1,1.5,0Z" transform="translate(1371.006 -1906.997) rotate(90)"/></svg>