<svg xmlns="http://www.w3.org/2000/svg" width="21.027" height="18.058" viewBox="0 0 21.027 18.058"><defs><style>.a{fill:#fff;stroke:#fff;stroke-width:0.5px;}</style></defs><path class="a" d="M1513.378,887.952l1.448,1.489-5.793,5.956h0l-3.377-3.472,1.448-1.489,1.93,1.984Zm3.456-5.5a7.613,7.613,0,0,0-2.621-3.221,7.137,7.137,0,0,0-11.083,5.179,4.4,4.4,0,0,0-2.4,1.707,4.214,4.214,0,0,0,3.36,6.6v-2.1a2.249,2.249,0,0,1-1.241-.449c-2.154-1.646.362-5.042,2.508-3.289-2.083-7.054,8.516-9.593,9.9-2.559a.424.424,0,0,0,.051-.006.4.4,0,0,1,.051,0,3.163,3.163,0,0,1,1.024,6.117v2.138A5.248,5.248,0,0,0,1516.834,882.454Z" transform="translate(-1499.688 -877.676)"/></svg>