<svg xmlns="http://www.w3.org/2000/svg" width="19.705" height="18.719" viewBox="0 0 19.705 18.719"><defs><style>.a{fill:#fff;stroke:#fff;stroke-width:0.5px;}</style></defs><path class="a" d="M1955.75,1480.15a.031.031,0,0,1-.013-.008.032.032,0,0,1-.009-.012,6.676,6.676,0,0,0-12.808,1.84.041.041,0,0,1-.009.02.04.04,0,0,1-.019.011,3.9,3.9,0,0,0,.492,7.643.5.5,0,0,1,.432.486v2.1a1.913,1.913,0,0,0,3.273,1.384l3.554-3.628a.948.948,0,0,1,.678-.287h2.821a4.979,4.979,0,0,0,5-4.467A4.871,4.871,0,0,0,1955.75,1480.15Zm-1.469,7.6H1951.1a1.9,1.9,0,0,0-1.326.543l-3.227,3.152a.478.478,0,0,1-.811-.354v-2.363a.969.969,0,0,0-.959-.979c-.959,0-2.514.065-2.836-1.551a1.921,1.921,0,0,1,3.063-1.932c-1.967-6.614,7.975-8.906,9.265-2.378a.477.477,0,0,0,.048-.005.331.331,0,0,1,.048,0C1958.075,1481.875,1958.284,1487.746,1954.281,1487.746Z" transform="translate(-1939.713 -1475.753)"/></svg>