<svg xmlns="http://www.w3.org/2000/svg" width="13.688" height="13.67" viewBox="0 0 13.688 13.67"><defs><style>.a{fill:#fff;}</style></defs><path class="a" d="M2067.314,805.58h-5.063a2.257,2.257,0,0,1-2.259-2.256v-5.056a2.257,2.257,0,0,1,2.259-2.256h5.063a2.258,2.258,0,0,1,2.259,2.256v5.056A2.258,2.258,0,0,1,2067.314,805.58Zm4.106-5.468h-.478v3.421a3.545,3.545,0,0,1-3.418,3.414H2064.1v.478a2.258,2.258,0,0,0,2.259,2.256h5.063a2.259,2.259,0,0,0,2.26-2.256v-5.056A2.259,2.259,0,0,0,2071.42,800.112Z" transform="translate(-2059.992 -796.012)"/></svg>