<svg xmlns="http://www.w3.org/2000/svg" width="15" height="15.025" viewBox="0 0 15 15.025"><defs><style>.a{fill:#ff336a;}</style></defs><path class="a" d="M1875.776,2040.276l-4.061-4.067a.749.749,0,0,0-.531-.22H1862.5a1.5,1.5,0,0,0-1.5,1.5v12.02a1.5,1.5,0,0,0,1.5,1.5h12a1.5,1.5,0,0,0,1.5-1.5v-8.7A.751.751,0,0,0,1875.776,2040.276Zm-1.281,8.484a.751.751,0,0,1-.75.751h-10.5a.751.751,0,0,1-.75-.751v-10.517a.751.751,0,0,1,.75-.751H1870v3a1.5,1.5,0,0,0,1.5,1.5h3Z" transform="translate(-1860.996 -2035.989)"/></svg>