<svg xmlns="http://www.w3.org/2000/svg" width="15" height="15" viewBox="0 0 15 15"><defs><style>.a{fill:#2900ff;}</style></defs><path class="a" d="M1787.468,1437.508a5.9,5.9,0,0,1,5.832,4.562,5.73,5.73,0,0,1-.059,2.732c-1.012,3.744,1.948,5.247-1.373,4.416a8.185,8.185,0,0,0-3.379-.16,6.061,6.061,0,0,1-2.613-.124,5.8,5.8,0,0,1,1.592-11.427h0m0-1.5a7.3,7.3,0,0,0-1.978,14.376,7.559,7.559,0,0,0,3.255.153,6.687,6.687,0,0,1,2.759.137l1.093.274h0a1.906,1.906,0,0,0,2.342-2.295l-.209-.8a5.188,5.188,0,0,1-.041-2.657,7.24,7.24,0,0,0,.077-3.441,7.413,7.413,0,0,0-7.3-5.745Z" transform="translate(-1780 -1436.008)"/></svg>