<svg xmlns="http://www.w3.org/2000/svg" width="11.873" height="14.828" viewBox="0 0 11.873 14.828"><defs><style>.a{fill:#ff9100;}</style></defs><path class="a" d="M1913.132,1246.376a.742.742,0,0,1-.742-.742v-3.707a4.218,4.218,0,0,0-3.71-4.39v-.8a.742.742,0,0,0-1.484,0v.8a4.218,4.218,0,0,0-3.71,4.39v3.707a.742.742,0,0,1-.742.742.741.741,0,1,0,0,1.483h2.968v.741a2.226,2.226,0,0,0,4.452,0v-.741h2.969a.741.741,0,1,0,0-1.483Zm-4.453,2.224a.742.742,0,0,1-1.484,0v-.741h1.484Zm2.226-2.224h-5.937v-4.449a2.85,2.85,0,0,1,2.968-2.966h0a2.85,2.85,0,0,1,2.968,2.966Z" transform="translate(-1902 -1235.996)"/></svg>