<svg xmlns="http://www.w3.org/2000/svg" width="15" height="15.003" viewBox="0 0 15 15.003"><defs><style>.a{fill:#05f;}</style></defs><path class="a" d="M517.713,1172.009c-.463,1.407-2.277,2.109-3.573,1.992a11.389,11.389,0,0,1-5.158-2.133,16.994,16.994,0,0,1-5.335-6.368,5.342,5.342,0,0,1,.218-5.539,2.115,2.115,0,0,1,1.69-.948c1.028-.05,1.172.538,1.524,1.454.263.685.614,1.384.81,2.094.367,1.326-.916,1.38-1.078,2.464-.1.683.726,1.6,1.1,2.086a10.1,10.1,0,0,0,2.608,2.4c.569.359,1.488,1.006,2.14.649,1-.55.908-2.243,2.313-1.67a22.855,22.855,0,0,1,2.125,1.1c1.073.578,1.023,1.175.613,2.418Z" transform="translate(-502.983 -1159.011)"/></svg>