<svg xmlns="http://www.w3.org/2000/svg" width="11.851" height="11.852" viewBox="0 0 11.851 11.852"><defs><style>.a{fill:#fff;}</style></defs><path class="a" d="M1547.351,2205.742l.838.838-2.268,2.269-1.676-1.676.838-.838.838.838Zm4.5,3.107h-2.963v-1.185h1.65a4.77,4.77,0,0,0-9.225,0h1.65v1.185H1540a5.7,5.7,0,0,1,3.7-5.527,3.556,3.556,0,1,1,4.454,0A5.7,5.7,0,0,1,1551.847,2208.849Zm-3.556-8.3a2.37,2.37,0,1,0-2.37,2.37A2.373,2.373,0,0,0,1548.291,2200.553Z" transform="translate(-1539.995 -2196.997)"/></svg>