<svg xmlns="http://www.w3.org/2000/svg" width="18.746" height="15" viewBox="0 0 18.746 15"><defs><style>.a{fill:#36e5f2;}</style></defs><path class="a" d="M1829.74,880.163a.473.473,0,0,1-.368.17.46.46,0,0,1-.359-.165c-3.321-4.062-9.184-2.039-9,2.96.143,3.978,2.963,5.95,6.282,8.748a4.824,4.824,0,0,0,6.194-.008c3.283-2.793,6.067-4.752,6.258-8.621C1838.995,878.136,1833.052,876.083,1829.74,880.163Zm1.506,10.349a2.869,2.869,0,0,1-1.859.677,2.906,2.906,0,0,1-1.88-.69c-3.369-2.839-5.513-4.345-5.624-7.434-.118-3.269,3.464-4.464,5.658-1.778a2.4,2.4,0,0,0,3.675-.01c2.147-2.644,5.823-1.518,5.655,1.883C1836.72,886.186,1834.494,887.747,1831.245,890.511Z" transform="translate(-1820.005 -877.997)"/></svg>