<svg xmlns="http://www.w3.org/2000/svg" width="15" height="15" viewBox="0 0 15 15"><defs><style>.a{fill:#a029d2;}</style></defs><path class="a" d="M675.995,2517.486a1.5,1.5,0,0,0-1.5-1.5h-12a1.5,1.5,0,0,0-1.5,1.5v12a1.5,1.5,0,0,0,1.5,1.5h12a1.5,1.5,0,0,0,1.5-1.5Zm-1.5,11.25a.75.75,0,0,1-.75.75h-10.5a.75.75,0,0,1-.75-.75v-10.5a.75.75,0,0,1,.75-.75h10.5a.75.75,0,0,1,.75.75Zm-9.75-4.5h7.5A3.755,3.755,0,1,1,664.745,2524.236Zm2.25-3a.75.75,0,0,1-.75.75h-1.5a.75.75,0,0,1-.75-.75h0a.75.75,0,0,1,.75-.75h1.5a.75.75,0,0,1,.75.75Zm6,0a.75.75,0,0,1-.75.75h-1.5a.75.75,0,0,1-.75-.75h0a.75.75,0,0,1,.75-.75h1.5a.75.75,0,0,1,.75.75Z" transform="translate(-660.995 -2515.986)"/></svg>