<svg xmlns="http://www.w3.org/2000/svg" width="20.118" height="20.283" viewBox="0 0 20.118 20.283"><defs><style>.a{fill:#fff;stroke:#fff;stroke-width:0.5px;}</style></defs><path class="a" d="M1438.864,1766.9a2.45,2.45,0,0,1,.009-1.875l.531-1.265a2.448,2.448,0,0,0-1.312-3.206l-1.267-.531a2.451,2.451,0,0,1-1.32-1.331l-.415-1.014a2.452,2.452,0,0,0-3.2-1.34l-1.015.415a2.453,2.453,0,0,1-1.876-.009l-1.267-.531a2.451,2.451,0,0,0-3.208,1.311l-.531,1.265a2.453,2.453,0,0,1-1.333,1.32l-1.015.415a2.448,2.448,0,0,0-1.341,3.194l.415,1.014a2.447,2.447,0,0,1-.008,1.874l-.531,1.265a2.448,2.448,0,0,0,1.312,3.206l1.266.531a2.452,2.452,0,0,1,1.321,1.332l.415,1.014a2.452,2.452,0,0,0,3.2,1.34l1.015-.415a2.454,2.454,0,0,1,1.876.008l1.266.531a2.452,2.452,0,0,0,3.208-1.311l.531-1.265a2.451,2.451,0,0,1,1.333-1.32l1.015-.415a2.448,2.448,0,0,0,1.341-3.193Zm-2.339-.14h0a2.448,2.448,0,0,1-1.341,3.194h0l-.81.331-.446,1.061a2.471,2.471,0,0,1-3.464,1.2l-.807-.338-.81.331h0a2.448,2.448,0,0,1-3.2-1.34l-.331-.809-1.062-.445a2.468,2.468,0,0,1-1.2-3.461l.339-.806-.331-.809h0a2.449,2.449,0,0,1,1.341-3.194h0l.81-.331.445-1.061a2.471,2.471,0,0,1,3.464-1.2l.807.338.81-.331h0a2.451,2.451,0,0,1,3.2,1.34h0l.331.809,1.062.445a2.468,2.468,0,0,1,1.2,3.461l-.338.806Zm-6.731-5.164a4.22,4.22,0,1,0,4.223,4.22A4.221,4.221,0,0,0,1429.794,1761.593Zm0,6.33a2.11,2.11,0,1,1,2.111-2.11A2.113,2.113,0,0,1,1429.794,1767.923Z" transform="translate(-1419.735 -1755.672)"/></svg>