<svg xmlns="http://www.w3.org/2000/svg" width="19.665" height="19.68" viewBox="0 0 19.665 19.68"><defs><style>.a{fill:#fff;stroke:#fff;stroke-width:0.5px;}</style></defs><path class="a" d="M1709.582,1995.985a9.59,9.59,0,1,0,9.582,9.59A9.586,9.586,0,0,0,1709.582,1995.985Zm0,1.883a7.642,7.642,0,0,1,7.6,6.748h-3.6a.471.471,0,0,0-.349.142l-1.277,1.353a.479.479,0,0,1-.764-.091l-1.822-3.151.009-.006-.372-.641a.958.958,0,0,0-1.507-.2l-.472.473.009-.014-1.995,1.982a.488.488,0,0,1-.337.147h-2.734A7.642,7.642,0,0,1,1709.582,1997.867Zm0,15.362a7.665,7.665,0,0,1-7.592-6.669l3.524.006a.48.48,0,0,0,.34-.142l1.754-1.761a.479.479,0,0,1,.752.1c2.115,3.615,1.692,2.893,2.215,3.782a.958.958,0,0,0,1.5.19l2.063-2.065a.471.471,0,0,1,.34-.132h2.693A7.627,7.627,0,0,1,1709.582,2013.229Z" transform="translate(-1699.749 -1995.735)"/></svg>