<svg xmlns="http://www.w3.org/2000/svg" width="15" height="15" viewBox="0 0 15 15"><defs><style>.a{fill:#8de689;}</style></defs><path class="a" d="M1910.516,921.251a.75.75,0,0,1,0,1.061l-2.916,2.916a1.126,1.126,0,0,1-1.593,0l-1.325-1.325a.75.75,0,1,1,1.061-1.061l.529.529a.752.752,0,0,0,1.064,0l2.12-2.12a.75.75,0,0,1,1.061,0ZM1915,917.49v12a1.5,1.5,0,0,1-1.5,1.5h-12a1.5,1.5,0,0,1-1.5-1.5v-12a1.5,1.5,0,0,1,1.5-1.5h12A1.5,1.5,0,0,1,1915,917.49Zm-1.5.75a.75.75,0,0,0-.75-.75h-10.5a.75.75,0,0,0-.75.75v10.5a.75.75,0,0,0,.75.75h10.5a.75.75,0,0,0,.75-.75Z" transform="translate(-1900 -915.99)"/></svg>